<svg width="34" height="34" viewBox="0 0 34 34" fill="none" xmlns="http://www.w3.org/2000/svg">
<path d="M34 17C34 7.61019 26.3898 0 17 0C7.61019 0 0 7.61019 0 17C0 25.4868 6.21562 32.5192 14.3438 33.7942V21.9141H10.0273V17H14.3438V13.2547C14.3438 8.9947 16.8805 6.64063 20.7652 6.64063C22.6246 6.64063 24.5703 6.97266 24.5703 6.97266V11.1563H22.4254C20.3137 11.1563 19.6562 12.4678 19.6562 13.8125V17H24.3711L23.6174 21.9141H19.6562V33.7942C27.7844 32.5192 34 25.4868 34 17Z" fill="#1877F2"/>
<path d="M23.6174 21.9141L24.3711 17H19.6563V13.8125C19.6563 12.4678 20.3137 11.1562 22.4254 11.1562H24.5703V6.97266C24.5703 6.97266 22.6246 6.64062 20.7653 6.64062C16.8805 6.64062 14.3438 8.9947 14.3438 13.2547V17H10.0273V21.9141H14.3438V33.7942C15.2104 33.9303 16.0969 34 17 34C17.9032 34 18.7897 33.9303 19.6563 33.7942V21.9141H23.6174Z" fill="white"/>
</svg>
