<svg width="29" height="29" viewBox="0 0 29 29" fill="none" xmlns="http://www.w3.org/2000/svg">
<path d="M29.0002 14.8477C29.0002 13.8685 28.9035 12.8576 28.7423 11.9099H14.7856V17.5013H22.7793C22.457 19.3019 21.3933 20.8814 19.8139 21.8923L24.5843 25.5251C27.3886 22.9664 29.0002 19.2387 29.0002 14.8477Z" fill="#4280EF"/>
<path d="M14.7876 29C18.7844 29 22.1366 27.7048 24.5863 25.4935L19.8159 21.8923C18.4943 22.7768 16.786 23.2822 14.7876 23.2822C10.9197 23.2822 7.66421 20.7234 6.47161 17.3117L1.57227 21.0077C4.0864 25.9042 9.17914 29 14.7876 29Z" fill="#34A353"/>
<path d="M6.47068 17.2802C5.85826 15.4796 5.85826 13.521 6.47068 11.7203L1.57134 7.99274C-0.523779 12.0994 -0.523779 16.9327 1.57134 21.0078L6.47068 17.2802Z" fill="#F6B704"/>
<path d="M14.7876 5.74992C16.8827 5.71833 18.9456 6.50808 20.4605 7.92963L24.683 3.75975C22.0077 1.29574 18.4621 -0.0310386 14.7876 0.000551336C9.17914 0.000551336 4.0864 3.09637 1.57227 7.99281L6.47161 11.7204C7.66421 8.27711 10.9197 5.74992 14.7876 5.74992Z" fill="#E54335"/>
</svg>
