<svg width="211" height="140" viewBox="0 0 211 140" fill="none" xmlns="http://www.w3.org/2000/svg">
<path d="M58.5 51.5L58.5 98.5" stroke="white" stroke-width="9" stroke-linecap="round"/>
<path d="M84 51.5L58.5 51.5" stroke="white" stroke-width="9" stroke-linecap="round"/>
<path d="M134.328 72.68H123.192V67.4H151.704V72.68H140.568V101H134.328V72.68ZM164.244 75.08C168.02 75.08 170.9 75.992 172.884 77.816C174.9 79.608 175.908 82.328 175.908 85.976V101H170.244V97.88C169.508 99 168.452 99.864 167.076 100.472C165.732 101.048 164.1 101.336 162.18 101.336C160.26 101.336 158.58 101.016 157.14 100.376C155.7 99.704 154.58 98.792 153.78 97.64C153.012 96.456 152.628 95.128 152.628 93.656C152.628 91.352 153.476 89.512 155.172 88.136C156.9 86.728 159.604 86.024 163.284 86.024H169.908V85.64C169.908 83.848 169.364 82.472 168.276 81.512C167.22 80.552 165.636 80.072 163.524 80.072C162.084 80.072 160.66 80.296 159.252 80.744C157.876 81.192 156.708 81.816 155.748 82.616L153.396 78.248C154.74 77.224 156.356 76.44 158.244 75.896C160.132 75.352 162.132 75.08 164.244 75.08ZM163.428 96.968C164.932 96.968 166.26 96.632 167.412 95.96C168.596 95.256 169.428 94.264 169.908 92.984V90.008H163.716C160.26 90.008 158.532 91.144 158.532 93.416C158.532 94.504 158.964 95.368 159.828 96.008C160.692 96.648 161.892 96.968 163.428 96.968ZM194.072 90.008L189.608 94.232V101H183.608V65.384H189.608V86.888L202.04 75.368H209.24L198.536 86.12L210.248 101H202.952L194.072 90.008Z" fill="#EA580C"/>
<path d="M97.2 90.924L93.108 94.796V101H87.608V68.352H93.108V88.064L104.504 77.504H111.104L101.292 87.36L112.028 101H105.34L97.2 90.924Z" fill="white"/>
<line x1="78" y1="101" x2="78" y2="78" stroke="white" stroke-width="6"/>
<circle cx="78" cy="73" r="3" fill="#EA580C"/>
<path fill-rule="evenodd" clip-rule="evenodd" d="M64.0069 111.469C72.1788 112.684 80.5275 111.448 87.9973 107.919L91.4152 115.152C82.5148 119.358 72.5672 120.829 62.8303 119.382C53.0933 117.934 44.0044 113.631 36.7129 107.018C29.4214 100.404 24.2547 91.777 21.8662 82.2272C19.4777 72.6774 19.9747 62.6337 23.2944 53.3664C26.614 44.099 32.6072 36.0242 40.5161 30.1629C48.425 24.3017 57.8943 20.9174 67.7266 20.4379C77.5589 19.9584 87.3126 22.4052 95.7542 27.4691C104.196 32.5329 110.946 39.9863 115.152 48.8866L107.919 52.3045C104.389 44.8347 98.7237 38.5794 91.6389 34.3294C84.5541 30.0795 76.3682 28.0259 68.1163 28.4284C59.8643 28.8308 51.917 31.6712 45.2794 36.5903C38.6418 41.5094 33.6119 48.2864 30.8258 56.0642C28.0397 63.842 27.6226 72.2713 29.6271 80.2861C31.6317 88.301 35.9679 95.5414 42.0875 101.092C48.207 106.642 55.8351 110.253 64.0069 111.469Z" fill="white"/>
</svg>
